<svg xmlns="http://www.w3.org/2000/svg" width="400" height="400" version="1.1"><path fill="#FD7702" d="M0 0 C0 5.28 0 10.56 0 16 C10.56 16 21.12 16 32 16 C32 21.28 32 26.56 32 32 C42.56 32 53.12 32 64 32 C64 37.28 64 42.56 64 48 C69.28 48 74.56 48 80 48 C80.33 52.95 80.66 57.9 81 63 C85.95 63.33 90.9 63.66 96 64 C96 74.56 96 85.12 96 96 C101.28 96 106.56 96 112 96 C112 106.56 112 117.12 112 128 C117.28 128 122.56 128 128 128 C128 154.4 128 180.8 128 208 C122.72 208 117.44 208 112 208 C112 218.56 112 229.12 112 240 C106.72 240 101.44 240 96 240 C96 250.56 96 261.12 96 272 C90.72 272 85.44 272 80 272 C80 277.28 80 282.56 80 288 C74.72 288 69.44 288 64 288 C64 293.28 64 298.56 64 304 C53.44 304 42.88 304 32 304 C32 309.28 32 314.56 32 320 C21.44 320 10.88 320 0 320 C0 325.28 0 330.56 0 336 C-26.4 336 -52.8 336 -80 336 C-80 330.72 -80 325.44 -80 320 C-90.56 320 -101.12 320 -112 320 C-112 314.72 -112 309.44 -112 304 C-122.56 304 -133.12 304 -144 304 C-144 298.72 -144 293.44 -144 288 C-149.28 288 -154.56 288 -160 288 C-160 282.72 -160 277.44 -160 272 C-165.28 272 -170.56 272 -176 272 C-176 261.44 -176 250.88 -176 240 C-181.28 240 -186.56 240 -192 240 C-192 229.44 -192 218.88 -192 208 C-197.28 208 -202.56 208 -208 208 C-208 181.6 -208 155.2 -208 128 C-202.72 128 -197.44 128 -192 128 C-192 117.44 -192 106.88 -192 96 C-186.72 96 -181.44 96 -176 96 C-176 85.44 -176 74.88 -176 64 C-168.08 63.505 -168.08 63.505 -160 63 C-160 58.05 -160 53.1 -160 48 C-154.72 48 -149.44 48 -144 48 C-144 42.72 -144 37.44 -144 32 C-133.44 32 -122.88 32 -112 32 C-112 26.72 -112 21.44 -112 16 C-101.44 16 -90.88 16 -80 16 C-80 10.72 -80 5.44 -80 0 C-53.30574116 -1.33986627 -26.70697399 -0.71776315 0 0 Z" transform="translate(240,32)"/><path fill="#FD7702" d="M0 0 C10.56 0 21.12 0 32 0 C32 5.28 32 10.56 32 16 C42.56 16 53.12 16 64 16 C64 21.28 64 26.56 64 32 C74.56 32 85.12 32 96 32 C96 37.28 96 42.56 96 48 C101.28 48 106.56 48 112 48 C112.495 55.425 112.495 55.425 113 63 C117.95 63.33 122.9 63.66 128 64 C128 74.56 128 85.12 128 96 C133.28 96 138.56 96 144 96 C144 106.56 144 117.12 144 128 C149.28 128 154.56 128 160 128 C160 138.56 160 149.12 160 160 C107.2 160 54.4 160 0 160 C0 144.16 0 128.32 0 112 C21.12 112 42.24 112 64 112 C64 106.72 64 101.44 64 96 C42.88 96 21.76 96 0 96 C0 64.32 0 32.64 0 0 Z" transform="translate(208,32)"/><path fill="#FD7702" d="M0 0 C52.8 0 105.6 0 160 0 C160 10.56 160 21.12 160 32 C154.72 32 149.44 32 144 32 C144 42.56 144 53.12 144 64 C138.72 64 133.44 64 128 64 C128 74.56 128 85.12 128 96 C122.72 96 117.44 96 112 96 C112 101.28 112 106.56 112 112 C106.72 112 101.44 112 96 112 C96 117.28 96 122.56 96 128 C85.44 128 74.88 128 64 128 C64 133.28 64 138.56 64 144 C53.44 144 42.88 144 32 144 C32 149.28 32 154.56 32 160 C21.44 160 10.88 160 0 160 C0 128.32 0 96.64 0 64 C21.12 64 42.24 64 64 64 C64 58.72 64 53.44 64 48 C42.88 48 21.76 48 0 48 C0 32.16 0 16.32 0 0 Z" transform="translate(208,208)"/><path fill="#FD7702" d="M0 0 C52.8 0 105.6 0 160 0 C160 15.84 160 31.68 160 48 C138.88 48 117.76 48 96 48 C96 53.28 96 58.56 96 64 C117.12 64 138.24 64 160 64 C160 95.68 160 127.36 160 160 C149.44 160 138.88 160 128 160 C128 154.72 128 149.44 128 144 C117.44 144 106.88 144 96 144 C96 138.72 96 133.44 96 128 C85.44 128 74.88 128 64 128 C64 122.72 64 117.44 64 112 C58.72 112 53.44 112 48 112 C48 106.72 48 101.44 48 96 C42.72 96 37.44 96 32 96 C32 85.44 32 74.88 32 64 C26.72 64 21.44 64 16 64 C16 53.44 16 42.88 16 32 C10.72 32 5.44 32 0 32 C0 21.44 0 10.88 0 0 Z" transform="translate(32,208)"/><path fill="#fff" d="M0 0 C5.28 0 10.56 0 16 0 C16 31.68 16 63.36 16 96 C37.12 96 58.24 96 80 96 C80 101.28 80 106.56 80 112 C58.88 112 37.76 112 16 112 C16 127.84 16 143.68 16 160 C68.8 160 121.6 160 176 160 C176 165.28 176 170.56 176 176 C123.2 176 70.4 176 16 176 C16 191.84 16 207.68 16 224 C37.12 224 58.24 224 80 224 C80 229.28 80 234.56 80 240 C58.88 240 37.76 240 16 240 C16 271.68 16 303.36 16 336 C10.72 336 5.44 336 0 336 C0 304.32 0 272.64 0 240 C-21.12 240 -42.24 240 -64 240 C-64 234.72 -64 229.44 -64 224 C-42.88 224 -21.76 224 0 224 C0 208.16 0 192.32 0 176 C-52.8 176 -105.6 176 -160 176 C-160 170.72 -160 165.44 -160 160 C-107.2 160 -54.4 160 0 160 C0 144.16 0 128.32 0 112 C-21.12 112 -42.24 112 -64 112 C-64 106.72 -64 101.44 -64 96 C-42.88 96 -21.76 96 0 96 C0 64.32 0 32.64 0 0 Z" transform="translate(192,32)"/><path fill="#FD7702" d="M0 0 C10.56 0 21.12 0 32 0 C32 5.28 32 10.56 32 16 C42.56 16 53.12 16 64 16 C64 21.28 64 26.56 64 32 C74.56 32 85.12 32 96 32 C96 37.28 96 42.56 96 48 C101.28 48 106.56 48 112 48 C112 53.28 112 58.56 112 64 C106.72 64 101.44 64 96 64 C96 69.28 96 74.56 96 80 C90.72 80 85.44 80 80 80 C80 85.28 80 90.56 80 96 C53.6 96 27.2 96 0 96 C0 64.32 0 32.64 0 0 Z" transform="translate(208,32)"/><path fill="#FD7703" d="M0 0 C0 32.01 0 64.02 0 97 C-21.12 97 -42.24 97 -64 97 C-64 91.72 -64 86.44 -64 81 C-69.28 81 -74.56 81 -80 81 C-80 75.72 -80 70.44 -80 65 C-85.28 65 -90.56 65 -96 65 C-96 54.44 -96 43.88 -96 33 C-85.44 33 -74.88 33 -64 33 C-64 27.72 -64 22.44 -64 17 C-53.44 17 -42.88 17 -32 17 C-32 11.72 -32 6.44 -32 1 C-27.60343896 0.85743635 -23.20687503 0.71496892 -18.81030273 0.57275391 C-17.31355607 0.52430919 -15.81681127 0.47580672 -14.32006836 0.42724609 C-12.17301917 0.3575967 -10.02596343 0.28815263 -7.87890625 0.21875 C-6.5854126 0.17685547 -5.29191895 0.13496094 -3.95922852 0.09179688 C-1 0 -1 0 0 0 Z" transform="translate(192,31)"/><path fill="#FD7702" d="M0 0 C21.12 0 42.24 0 64 0 C64 5.28 64 10.56 64 16 C69.28 16 74.56 16 80 16 C80 21.28 80 26.56 80 32 C85.28 32 90.56 32 96 32 C96 42.56 96 53.12 96 64 C85.44 64 74.88 64 64 64 C64 69.28 64 74.56 64 80 C53.44 80 42.88 80 32 80 C32 85.28 32 90.56 32 96 C21.44 96 10.88 96 0 96 C0 64.32 0 32.64 0 0 Z" transform="translate(208,272)"/><path fill="#FD7702" d="M0 0 C21.12 0 42.24 0 64 0 C64 31.68 64 63.36 64 96 C53.44 96 42.88 96 32 96 C32 90.72 32 85.44 32 80 C21.44 80 10.88 80 0 80 C0 74.72 0 69.44 0 64 C-10.56 64 -21.12 64 -32 64 C-32 53.44 -32 42.88 -32 32 C-26.72 32 -21.44 32 -16 32 C-16 26.72 -16 21.44 -16 16 C-10.72 16 -5.44 16 0 16 C0 10.72 0 5.44 0 0 Z" transform="translate(128,272)"/><path fill="#fff" d="M0 0 C5.28 0 10.56 0 16 0 C16 5.28 16 10.56 16 16 C10.72 16 5.44 16 0 16 C0 10.72 0 5.44 0 0 Z" transform="translate(304,304)"/><path fill="#fff" d="M0 0 C5.28 0 10.56 0 16 0 C16 5.28 16 10.56 16 16 C10.72 16 5.44 16 0 16 C0 10.72 0 5.44 0 0 Z" transform="translate(80,304)"/><path fill="#fff" d="M0 0 C5.28 0 10.56 0 16 0 C16 5.28 16 10.56 16 16 C10.72 16 5.44 16 0 16 C0 10.72 0 5.44 0 0 Z" transform="translate(288,288)"/><path fill="#fff" d="M0 0 C5.28 0 10.56 0 16 0 C16 5.28 16 10.56 16 16 C10.72 16 5.44 16 0 16 C0 10.72 0 5.44 0 0 Z" transform="translate(96,288)"/><path fill="#fff" d="M0 0 C5.28 0 10.56 0 16 0 C16 5.28 16 10.56 16 16 C10.72 16 5.44 16 0 16 C0 10.72 0 5.44 0 0 Z" transform="translate(272,272)"/><path fill="#fff" d="M0 0 C5.28 0 10.56 0 16 0 C16 5.28 16 10.56 16 16 C10.72 16 5.44 16 0 16 C0 10.72 0 5.44 0 0 Z" transform="translate(112,272)"/><path fill="#fff" d="M0 0 C5.28 0 10.56 0 16 0 C16 5.28 16 10.56 16 16 C10.72 16 5.44 16 0 16 C0 10.72 0 5.44 0 0 Z" transform="translate(272,112)"/><path fill="#fff" d="M0 0 C5.28 0 10.56 0 16 0 C16 5.28 16 10.56 16 16 C10.72 16 5.44 16 0 16 C0 10.72 0 5.44 0 0 Z" transform="translate(112,112)"/><path fill="#fff" d="M0 0 C5.28 0 10.56 0 16 0 C16 5.28 16 10.56 16 16 C10.72 16 5.44 16 0 16 C0 10.72 0 5.44 0 0 Z" transform="translate(288,96)"/><path fill="#fff" d="M0 0 C5.28 0 10.56 0 16 0 C16 5.28 16 10.56 16 16 C10.72 16 5.44 16 0 16 C0 10.72 0 5.44 0 0 Z" transform="translate(96,96)"/><path fill="#fff" d="M0 0 C5.28 0 10.56 0 16 0 C16 5.28 16 10.56 16 16 C10.72 16 5.44 16 0 16 C0 10.72 0 5.44 0 0 Z" transform="translate(304,80)"/><path fill="#fff" d="M0 0 C5.28 0 10.56 0 16 0 C16 5.28 16 10.56 16 16 C10.72 16 5.44 16 0 16 C0 10.72 0 5.44 0 0 Z" transform="translate(80,80)"/></svg>